Coordinates
version=1
nRows=10
nColumns=40
inDegrees=yes

Units are S.I. units (second, meters, Newtons, ...)
Angles are in degrees.

endheader
time	pelvis_tilt	pelvis_list	pelvis_rotation	pelvis_tx	pelvis_ty	pelvis_tz	hip_flexion_r	hip_adduction_r	hip_rotation_r	knee_angle_r	knee_angle_r_beta	ankle_angle_r	subtalar_angle_r	mtp_angle_r	hip_flexion_l	hip_adduction_l	hip_rotation_l	knee_angle_l	knee_angle_l_beta	ankle_angle_l	subtalar_angle_l	mtp_angle_l	lumbar_extension	lumbar_bending	lumbar_rotation	arm_flex_r	arm_add_r	arm_rot_r	elbow_flex_r	pro_sup_r	wrist_flex_r	wrist_dev_r	arm_flex_l	arm_add_l	arm_rot_l	elbow_flex_l	pro_sup_l	wrist_flex_l	wrist_dev_l
      0.00000000	      1.97363210	      3.25511679	     -3.78176656	     -1.39609930	      0.90125083	     -1.41318577	     22.00854959	     -0.76216995	     -7.65469151	    -53.13341351	     -0.92735301	      0.38789735	    -12.40841833	     -1.21892134	     -1.98787753	     -1.88327281	     11.03844437	    -13.96930505	     -0.24381037	     10.69745991	     -3.47459595	     -2.61802116	     -8.81760711	      0.13776533	     -5.12735729	      9.17715361	     -7.67071061	     17.89037642	     21.00602635	     89.95437384	      0.00000000	      0.00000000	      2.77139931	      9.80780503	    -20.05088727	     13.18637460	     89.95437384	      0.00000000	      0.00000000
      0.01000000	      1.98406159	      2.80050328	     -4.02065369	     -1.38439042	      0.90070321	     -1.41469045	     22.77917402	     -0.16988979	     -8.48356822	    -50.75415250	     -0.88582707	      0.97502133	    -12.31309300	     -0.95011325	     -3.25365537	     -1.59099744	     11.54665140	    -13.33569931	     -0.23275186	     11.18879413	     -4.11609986	     -2.77680663	     -8.85551504	      0.68523255	     -5.10101856	      8.55640393	     -7.82350339	     17.39278236	     20.41857214	     89.95437384	      0.00000000	      0.00000000	      3.91082451	     10.29846565	    -19.03020636	     14.08643766	     89.95437384	      0.00000000	      0.00000000
      0.02000000	      1.62788802	      2.97999660	     -4.03046752	     -1.37267590	      0.89902343	     -1.41722016	     24.15871158	     -0.37324737	     -9.07185768	    -48.69563960	     -0.84989924	      1.36642543	    -12.16346616	     -0.86826087	     -3.84606475	     -2.02428989	     11.88606469	    -13.06156597	     -0.22796733	     11.57153546	     -4.19703504	     -2.82245052	     -8.39221006	      0.63203842	     -5.24143676	      7.80731323	     -8.12429394	     17.35288481	     19.92700080	     89.95437384	      0.00000000	      0.00000000	      5.07242858	     10.84508834	    -18.67950961	     14.91880072	     89.95437384	      0.00000000	      0.00000000
      0.03000000	      2.30348938	      2.20162402	     -4.12079929	     -1.36021521	      0.89896436	     -1.41848045	     23.76052682	      0.61816635	     -9.77010881	    -45.67826852	     -0.79723618	      1.86803409	    -12.17639014	     -0.55755450	     -6.11346945	     -1.44590647	     12.18048426	    -12.01212987	     -0.20965122	     12.08449149	     -4.87415092	     -3.01851006	     -9.18447624	      1.49163469	     -5.43196525	      7.30027880	     -8.28531332	     17.06115845	     19.28857849	     89.95437384	      0.00000000	      0.00000000	      6.08092568	     11.28070809	    -16.68148505	     16.12875283	     89.95437384	      0.00000000	      0.00000000
      0.04000000	      2.50702458	      1.86957962	     -3.87431223	     -1.34845987	      0.89790639	     -1.42070707	     24.09793220	      0.80075573	    -10.85763724	    -42.96999065	     -0.74996782	      2.09846148	    -11.84660068	     -0.23532204	     -7.40259260	     -1.27659530	     12.34906171	    -11.61873006	     -0.20278509	     12.38109393	     -5.48512086	     -3.21712881	     -9.48579927	      1.96132646	     -5.82911591	      6.75471710	     -8.49172675	     16.76387568	     18.68156610	     89.95437384	      0.00000000	      0.00000000	      7.29411371	     11.65411139	    -14.93358812	     17.01886442	     89.95437384	      0.00000000	      0.00000000
      0.05000000	      2.45952830	      1.72785894	     -3.83537243	     -1.33659112	      0.89607354	     -1.42230359	     24.77340059	      0.94543772	    -11.53741314	    -40.32927585	     -0.70387865	      2.15219811	    -11.46742521	     -0.03151900	     -8.42711608	     -1.31577666	     12.49990025	    -11.23533655	     -0.19609362	     12.75656400	     -5.88359903	     -3.35229046	     -9.46132653	      2.17032807	     -5.98014838	      6.11419976	     -8.66780314	     16.64538167	     18.06770842	     89.95437384	      0.00000000	      0.00000000	      8.46960517	     12.16747084	    -13.99458792	     17.93920448	     89.95437384	      0.00000000	      0.00000000
      0.06000000	      2.89388393	      1.29298295	     -3.57132789	     -1.32440721	      0.89501106	     -1.42417101	     24.66001085	      1.20908433	    -12.63906159	    -37.35416330	     -0.65195314	      1.87490598	    -10.88979456	      0.33748917	     -9.94885618	     -0.98166026	     12.89433919	    -10.94874547	     -0.19109166	     13.04392115	     -6.46545925	     -3.59284073	    -10.02963835	      2.72332396	     -6.33863788	      5.61119718	     -8.84589914	     16.06819749	     17.38464724	     89.95437384	      0.00000000	      0.00000000	      9.70052377	     12.47960296	    -12.22517151	     18.85032572	     89.95437384	      0.00000000	      0.00000000
      0.07000000	      2.82148121	      1.17626585	     -3.39762292	     -1.31266046	      0.89288688	     -1.42576644	     25.27114611	      1.28000132	    -13.21421735	    -34.58266838	     -0.60358143	      1.22156417	    -10.09959964	      0.56531173	    -10.77803210	     -0.97305735	     12.86492038	    -10.85927898	     -0.18953017	     13.51356665	     -6.87980320	     -3.79260065	    -10.02039126	      2.91999284	     -6.53415835	      5.01233406	     -8.99820609	     15.86678020	     16.75749243	     89.95437384	      0.00000000	      0.00000000	     10.99683010	     12.92621517	    -11.43712912	     19.64903303	     89.95437384	      0.00000000	      0.00000000
      0.08000000	      3.05195192	      0.78683882	     -3.05198773	     -1.30054617	      0.89127901	     -1.42723944	     25.32737604	      1.52426096	    -14.12077594	    -31.58130701	     -0.55119779	      0.24036866	     -9.08349750	      0.85089603	    -11.89797430	     -0.58672389	     13.01748343	    -10.90873407	     -0.19039333	     14.00022958	     -7.18998310	     -4.05399871	    -10.33679773	      3.40146821	     -6.88027471	      4.47929883	     -9.09046372	     15.18669410	     16.05385412	     89.95437384	      0.00000000	      0.00000000	     12.22916229	     13.31797181	    -10.40279290	     20.54316754	     89.95437384	      0.00000000	      0.00000000
      0.09000000	      3.11278199	      0.52419130	     -2.64974602	     -1.28859782	      0.88939422	     -1.42876380	     25.55908219	      1.62656834	    -14.87121051	    -28.64163753	     -0.49989088	     -0.94821671	     -7.98708830	      1.09073374	    -12.73826491	     -0.31003212	     12.90262367	    -11.07023108	     -0.19321198	     14.28918871	     -7.55531340	     -4.32621393	    -10.49696654	      3.76162842	     -7.14622961	      3.89133488	     -9.15695869	     14.29573100	     15.40933110	     89.95437384	      0.00000000	      0.00000000	     13.60208261	     13.62442857	     -9.55426057	     21.27742341	     89.95437384	      0.00000000	      0.00000000
